<svg width="77" height="80" viewBox="0 0 77 80" fill="none" xmlns="http://www.w3.org/2000/svg">
<rect x="9" y="1" width="61" height="77" fill="#DBDBE6"/>
<rect x="9" y="1" width="61" height="77" fill="#DBDBE6"/>
<rect x="9" y="1" width="61" height="77" fill="white"/>
<rect x="72" y="9" width="3" height="66" fill="#DBDBE6"/>
<rect x="72" y="9" width="3" height="66" fill="#DBDBE6"/>
<rect x="72" y="9" width="3" height="66" fill="white"/>
<path d="M70.726 80.0001H10.6086C8.49606 80.0001 6.77734 78.2911 6.77734 76.1905V3.8097C6.77734 1.7092 8.49606 0.000244141 10.6086 0.000244141H70.726C71.4216 0.000244141 71.9856 0.561025 71.9856 1.25269V78.7478C71.9856 79.4393 71.4216 80.0001 70.726 80.0001ZM10.6086 2.50497C9.88509 2.50497 9.29654 3.09017 9.29654 3.80954V76.1903C9.29654 76.9098 9.88509 77.495 10.6086 77.495H69.4664V2.50497H10.6086Z" fill="#6F93CE"/>
<path d="M7.18963 14.2976C3.15813 14.2976 0 12.2674 0 9.67578C0 7.08416 3.15797 5.05396 7.18963 5.05396C11.2213 5.05396 14.3794 7.08416 14.3794 9.67578C14.3794 10.3674 13.8154 10.9282 13.1198 10.9282C12.4242 10.9282 11.8602 10.3674 11.8602 9.67578C11.8602 8.81269 10.0407 7.55884 7.18963 7.55884C4.33868 7.55884 2.5192 8.81269 2.5192 9.67578C2.5192 10.5389 4.33853 11.7927 7.18963 11.7927C7.88524 11.7927 8.44922 12.3535 8.44922 13.0452C8.44922 13.7368 7.88524 14.2976 7.18963 14.2976Z" fill="#6F93CE"/>
<path d="M7.18963 27.775C3.15813 27.775 0 25.7449 0 23.1533C0 20.5617 3.15813 18.5315 7.18963 18.5315C11.2213 18.5315 14.3794 20.5617 14.3794 23.1533C14.3794 23.845 13.8154 24.4058 13.1198 24.4058C12.4242 24.4058 11.8602 23.845 11.8602 23.1533C11.8602 22.2902 10.0407 21.0364 7.18963 21.0364C4.33868 21.0364 2.5192 22.2902 2.5192 23.1533C2.5192 24.0164 4.33868 25.2701 7.18963 25.2701C7.88524 25.2701 8.44922 25.8309 8.44922 26.5225C8.44922 27.2142 7.88524 27.775 7.18963 27.775Z" fill="#6F93CE"/>
<path d="M7.18963 41.2525C3.15813 41.2525 0 39.2223 0 36.6307C0 34.0391 3.15813 32.009 7.18963 32.009C11.2213 32.009 14.3794 34.0391 14.3794 36.6307C14.3794 37.3224 13.8154 37.8831 13.1198 37.8831C12.4242 37.8831 11.8602 37.3224 11.8602 36.6307C11.8602 35.7676 10.0407 34.5139 7.18963 34.5139C4.33868 34.5139 2.5192 35.7676 2.5192 36.6307C2.5192 37.4938 4.33853 38.7476 7.18963 38.7476C7.88524 38.7476 8.44922 39.3084 8.44922 40.0001C8.44922 40.6917 7.88524 41.2525 7.18963 41.2525Z" fill="#6F93CE"/>
<path d="M7.18963 54.7299C3.15813 54.7299 0 52.6997 0 50.1082C0 47.5168 3.15813 45.4866 7.18963 45.4866C11.2213 45.4866 14.3794 47.5168 14.3794 50.1082C14.3794 50.7999 13.8154 51.3607 13.1198 51.3607C12.4242 51.3607 11.8602 50.7999 11.8602 50.1082C11.8602 49.2451 10.0407 47.9915 7.18963 47.9915C4.33868 47.9915 2.5192 49.2453 2.5192 50.1082C2.5192 50.9712 4.33868 52.225 7.18963 52.225C7.88524 52.225 8.44922 52.7858 8.44922 53.4775C8.44922 54.1691 7.88524 54.7299 7.18963 54.7299Z" fill="#6F93CE"/>
<path d="M7.18963 68.2074C3.15813 68.2074 0 66.1772 0 63.5855C0 60.9939 3.15813 58.9639 7.18963 58.9639C11.2213 58.9639 14.3794 60.9941 14.3794 63.5855C14.3794 64.2772 13.8154 64.838 13.1198 64.838C12.4242 64.838 11.8602 64.2772 11.8602 63.5855C11.8602 62.7224 10.0407 61.4687 7.18963 61.4687C4.33868 61.4687 2.5192 62.7226 2.5192 63.5855C2.5192 64.4488 4.33868 65.7025 7.18963 65.7025C7.88524 65.7025 8.44922 66.2633 8.44922 66.9549C8.44922 67.6466 7.88524 68.2074 7.18963 68.2074Z" fill="#6F93CE"/>
<path d="M19.8973 73.2612C19.2017 73.2612 18.6377 72.7005 18.6377 72.0088V1.25244C18.6377 0.560781 19.2017 0 19.8973 0C20.5929 0 21.1569 0.560781 21.1569 1.25244V72.0088C21.1569 72.7005 20.5929 73.2612 19.8973 73.2612Z" fill="#6F93CE"/>
<path d="M70.7262 73.2612H8.03694C7.34133 73.2612 6.77734 72.7004 6.77734 72.0088C6.77734 71.3171 7.34133 70.7563 8.03694 70.7563H70.7262C71.4218 70.7563 71.9858 71.3171 71.9858 72.0088C71.9858 72.7004 71.4218 73.2612 70.7262 73.2612Z" fill="#6F93CE"/>
<path d="M75.74 76.6306H70.7254C70.0298 76.6306 69.4658 76.0698 69.4658 75.3782C69.4658 74.6865 70.0298 74.1257 70.7254 74.1257H74.4804V9.24365H70.7254C70.0298 9.24365 69.4658 8.68287 69.4658 7.99121C69.4658 7.29955 70.0298 6.73877 70.7254 6.73877H75.74C76.4356 6.73877 76.9996 7.29955 76.9996 7.99121V75.3782C76.9996 76.0697 76.4356 76.6306 75.74 76.6306Z" fill="#6F93CE"/>
<path fill-rule="evenodd" clip-rule="evenodd" d="M55.3082 40.5479V42.544H57.3157V46.5362H55.3082V48.5323H51.2933V46.5362H49.2858V50.5283H47.2783V52.5244H43.2633V50.5283H41.2558V46.5362H39.2484V48.5323H35.2334V46.5362H33.2259V42.544H35.2334V40.5479H31.2184V38.5519H29.2109V34.5597H31.2184V32.5636H35.2334V30.5676H33.2259V26.5754H35.2334V24.5793H39.2484V26.5754H41.2558V22.5832H43.2633V20.5872H47.2783V22.5832H49.2858V26.5754H51.2933V24.5793H55.3082V26.5754H57.3157V30.5676H55.3082V32.5636H59.3232V34.5597H61.3307V38.5519H59.3232V40.5479H55.3082ZM47.2783 30.5676H43.2633V32.5636H41.2558V34.5597H39.2484V38.5519H41.2558V40.5479H43.2633V42.544H47.2783V40.5479H49.2858V38.5519H51.2933V34.5597H49.2858V32.5636H47.2783V30.5676Z" fill="#F16767"/>
</svg>
