<svg width="131" height="36" viewBox="0 0 131 36" fill="none" xmlns="http://www.w3.org/2000/svg">
<path d="M12 3.45C12 1.9 13 1.7 15.4 1.7H19.1V0.349998H0V1.7H3.7C6.15 1.7 7.1 1.9 7.1 3.45V32.25C7.1 33.8 6.15 34 3.7 34H0V35.35H19.1V34H15.4C13 34 12 33.8 12 32.25V3.45Z" fill="white"/>
<path d="M45.8984 18.5C54.3984 18.5 58.7484 14.55 58.7484 9.2C58.7484 3.4 54.3984 0.349998 45.7484 0.349998H26.8984V1.7H30.6484C33.9984 1.7 34.0984 2.05 34.0984 5.55V31.8C34.0984 33.8 33.1484 34 30.6984 34H26.9984V35.35H46.0984V34H42.3984C39.9984 34 38.9984 33.8 38.9984 31.8V18.5H45.8984ZM38.9984 5.4C38.9984 3.15 39.3984 1.7 42.1484 1.7H45.7484C50.5984 1.7 53.3484 3.45 53.3484 6.95V11.5C53.3484 15.35 49.9484 17.15 44.3484 17.15H38.9984V5.4Z" fill="white"/>
<path d="M90.8387 35.7C94.9387 35.7 96.6887 33.85 96.6887 31.3V22.25H95.2387V30.95C95.2387 33.1 94.3387 33.9 92.8387 33.9C91.5887 33.9 90.8887 33.45 90.8887 32V22.65C90.8887 18.7 87.5387 17.55 83.7887 17.4V17.1C89.3387 16.75 93.0887 14 93.0887 8.85C93.0887 3.4 89.1887 0.349998 81.0887 0.349998H61.6387V1.7H65.3887C68.7387 1.7 68.8387 2.05 68.8387 5.9V19.075V32.25C68.8387 33.8 67.8887 34 65.4387 34H61.7387V35.35H80.8387V34H77.1387C74.7387 34 73.7387 33.8 73.7387 32.25V17.95H79.8387C83.5887 17.95 85.9387 18.7 85.9387 22.7V32.25C85.9387 35.2 88.4887 35.7 90.8387 35.7ZM73.7387 5.8C73.7387 2.35 74.2387 1.7 77.4387 1.7H81.0887C85.3887 1.7 87.6887 3.7 87.6887 7.1V10.95C87.6887 14.65 84.7887 16.6 79.6887 16.6H73.7387V5.8Z" fill="white"/>
<path d="M128.676 19.45C128.376 28.85 124.176 34 117.626 34C112.576 34 108.976 30.3 108.976 24.6V10.65C108.976 3.8 113.276 1.55 116.876 1.55C120.776 1.55 126.676 5 128.576 15.95H129.676V0.349998H128.326C128.126 3.05 127.526 4.05 126.376 4.05C125.776 4.05 125.226 3.75 124.276 3C122.476 1.55 119.976 0 116.826 0C110.176 0 103.326 6.65 103.326 17.8C103.326 28.65 109.126 35.7 117.626 35.7C125.026 35.7 129.926 29.7 130.326 19.45H128.676Z" fill="white"/>
</svg>
