<svg width="2141" height="534" viewBox="0 0 2141 534" fill="none" xmlns="http://www.w3.org/2000/svg">
<g clip-path="url(#clip0_803_2)">
<path d="M273 39.06C217 39.06 199 51.06 199 88.56V445.54C199 483.04 217 495.04 273 495.04V524.78H0V495.04C55 495.04 73 483.04 73 445.54V88.56C73 51.06 55 39.06 0 39.06V8.77H273V39.06ZM720.97 288.77H636V439.54C636 480.04 656 494.29 716 495.04V524.78H443V495.04C498 495.04 516 483.04 516 445.54V88.56C516 51.06 498 39.06 443 39.06V8.77H714.23C819.22 8.77 895.72 56.53 897.22 145.77C898.72 238.01 822.22 288.77 720.98 288.77H720.97ZM685.61 43.56C658.61 43.56 636 61.56 636 99.06V254.77H663.98C736.73 254.77 768.17 218.16 768.17 150.67C768.17 92.92 739.61 43.57 685.62 43.57L685.61 43.56ZM1410.92 533.9C1334.42 533.9 1304.46 493.47 1299.21 404.97C1293.96 313.48 1291 288.79 1210 277.54V435.03C1210 477.78 1220 495.03 1282 495.03V524.77H1016V495.03C1072 495.03 1090 483.03 1090 445.53V88.56C1090 51.06 1072 39.06 1016 39.06V8.77H1278.93C1406.42 8.77 1470.7 59.91 1470.7 146.91C1470.7 245.15 1372.99 270.05 1288.99 271.55V273.05C1380.99 285.05 1402.45 333.8 1418.95 385.54C1442.95 458.29 1446.81 466.4 1464.81 466.4C1482.81 466.4 1488.17 435.77 1490.42 410.77H1520.42C1520.42 484.77 1489.67 533.9 1410.93 533.9H1410.92ZM1341.96 147.81C1341.96 85.56 1310.48 43.57 1258.73 43.57C1232.48 43.57 1210 54.07 1210 88.57V250.55C1292 246.8 1341.96 234.05 1341.96 147.81ZM1929.14 533.77C1752.15 533.77 1654.66 410.91 1654.66 266.92C1654.66 122.93 1776.15 0 1917.89 0C1974.14 0 2022.13 20.63 2064.88 43.88L2094.13 12.77H2124V195.77H2094.13C2055.13 89.77 2013.13 34.17 1926.14 34.17C1833.15 34.17 1792.65 119.86 1792.65 266.85C1792.65 413.84 1843.65 499.17 1945.64 499.17C2047.63 499.17 2101.63 435.77 2107.63 322.77H2140.63C2140.63 453.77 2066.38 533.77 1929.14 533.77Z" fill="white"/>
</g>
<defs>
<clipPath id="clip0_803_2">
<rect width="2140.62" height="533.9" fill="white"/>
</clipPath>
</defs>
</svg>
