<?xml version="1.0" encoding="UTF-8"?>
<svg id="Layer_2" data-name="Layer 2" xmlns="http://www.w3.org/2000/svg" viewBox="0 0 2140.62 533.9">
  <g id="Layer_1-2" data-name="Layer 1">
    <path d="M273,39.06c-56,0-74,12-74,49.5V445.54c0,37.5,18,49.5,74,49.5v29.74H0v-29.74c55,0,73-12,73-49.5V88.56c0-37.5-18-49.5-73-49.5V8.77H273v30.29Zm447.97,249.71h-84.97v150.77c0,40.5,20,54.75,80,55.5v29.74H443v-29.74c55,0,73-12,73-49.5V88.56c0-37.5-18-49.5-73-49.5V8.77h271.23c104.99,0,181.49,47.76,182.99,137,1.5,92.24-75,143-176.24,143Zm-35.36-245.21c-27,0-49.61,18-49.61,55.5V254.77h27.98c72.75,0,104.19-36.61,104.19-104.1,0-57.75-28.56-107.1-82.55-107.1Zm725.31,490.34c-76.5,0-106.46-40.43-111.71-128.93-5.25-91.49-8.21-116.18-89.21-127.43v157.49c0,42.75,10,60,72,60v29.74h-266v-29.74c56,0,74-12,74-49.5V88.56c0-37.5-18-49.5-74-49.5V8.77h262.93c127.49,0,191.77,51.14,191.77,138.14,0,98.24-97.71,123.14-181.71,124.64v1.5c92,12,113.46,60.75,129.96,112.49,24,72.75,27.86,80.86,45.86,80.86s23.36-30.63,25.61-55.63h30c0,74-30.75,123.13-109.49,123.13Zm-68.96-386.09c0-62.25-31.48-104.24-83.23-104.24-26.25,0-48.73,10.5-48.73,45V250.55c82-3.75,131.96-16.5,131.96-102.74Zm587.18,385.96c-176.99,0-274.48-122.86-274.48-266.85S1776.15,0,1917.89,0c56.25,0,104.24,20.63,146.99,43.88l29.25-31.11h29.87V195.77h-29.87c-39-106-81-161.6-167.99-161.6-92.99,0-133.49,85.69-133.49,232.68s51,232.32,152.99,232.32,155.99-63.4,161.99-176.4h33c0,131-74.25,211-211.49,211Z"/>
  </g>
</svg>